Coordinates
version=1
nRows=7
nColumns=40
inDegrees=yes

Units are S.I. units (second, meters, Newtons, ...)
If the header above contains a line with 'inDegrees', this indicates whether rotational values are in degrees (yes) or radians (no).

endheader
time	pelvis_tilt	pelvis_list	pelvis_rotation	pelvis_tx	pelvis_ty	pelvis_tz	hip_flexion_r	hip_adduction_r	hip_rotation_r	knee_angle_r	knee_angle_r_beta	ankle_angle_r	subtalar_angle_r	mtp_angle_r	hip_flexion_l	hip_adduction_l	hip_rotation_l	knee_angle_l	knee_angle_l_beta	ankle_angle_l	subtalar_angle_l	mtp_angle_l	lumbar_extension	lumbar_bending	lumbar_rotation	arm_flex_r	arm_add_r	arm_rot_r	elbow_flex_r	pro_sup_r	wrist_flex_r	wrist_dev_r	arm_flex_l	arm_add_l	arm_rot_l	elbow_flex_l	pro_sup_l	wrist_flex_l	wrist_dev_l
      0.46388889	      4.21976496	      9.41079128	     86.97069664	      0.05305568	      1.09697719	      0.55611068	     55.89094985	      0.96027931	     12.28056454	     90.56360797	      1.58063314	     -6.48866480	      0.00000000	      0.00000000	      6.04931298	     -1.78492361	      2.72530069	     23.94321583	      0.41788795	      8.65116878	      0.00000000	      0.00000000	    -21.95323385	      3.56801324	    -14.28085618	     16.33924422	    -21.22003343	     37.24482078	    101.97021161	     64.01380521	      0.00000000	      0.00000000	     16.91769424	    -27.00970405	     24.11742421	    113.87539589	     80.14917733	      0.00000000	      0.00000000
      0.46666667	      4.28503500	      9.59102152	     87.19409882	      0.05358620	      1.09735798	      0.55621001	     56.52574165	      1.16551520	     12.31130522	     90.67239047	      1.58253175	     -6.48690126	      0.00000000	      0.00000000	      5.87526153	     -1.89569982	      2.82361196	     23.94241959	      0.41787405	      8.65024615	      0.00000000	      0.00000000	    -22.18829842	      3.61550790	    -14.30323480	     16.48534767	    -21.15836138	     37.20405068	    101.97262984	     64.00500310	      0.00000000	      0.00000000	     17.16032878	    -27.04123149	     24.05549540	    113.86436759	     80.13926293	      0.00000000	      0.00000000
      0.46944444	      4.35157766	      9.77321454	     87.40883909	      0.05411415	      1.09771339	      0.55631889	     57.16914360	      1.37654138	     12.33501007	     90.77742387	      1.58436493	     -6.49328097	      0.00000000	      0.00000000	      5.69908573	     -2.00869701	      2.93441169	     23.93905241	      0.41781528	      8.64750117	      0.00000000	      0.00000000	    -22.42191940	      3.65814069	    -14.32851085	     16.63746396	    -21.09590929	     37.15926345	    101.96603789	     63.99397894	      0.00000000	      0.00000000	     17.41278229	    -27.07447426	     24.00580158	    113.86124457	     80.13203919	      0.00000000	      0.00000000
      0.47222222	      4.76894951	      9.74085612	     87.84914710	      0.05453737	      1.09775643	      0.55661274	     58.00136696	      1.58928417	     11.86201614	     90.81529681	      1.58502594	     -6.82700727	      0.00000000	      0.00000000	      5.88887046	     -2.46444520	      3.57488732	     24.13194348	      0.42118187	      8.77011558	      0.00000000	      0.00000000	    -22.44351316	      4.14496599	    -14.38085776	     16.70044764	    -21.07246165	     37.01231892	    101.96449653	     63.92204581	      0.00000000	      0.00000000	     17.82894383	    -27.15473143	     24.28823578	    113.73613088	     80.07778118	      0.00000000	      0.00000000
      0.47500000	      4.80590059	      9.92949809	     88.05192132	      0.05506526	      1.09817881	      0.55668313	     58.61967559	      1.76582186	     11.90096785	     90.88382280	      1.58622194	     -6.79114797	      0.00000000	      0.00000000	      5.70215480	     -2.55648965	      3.60500217	     24.12171734	      0.42100339	      8.76913032	      0.00000000	      0.00000000	    -22.68265559	      4.16121290	    -14.41089508	     16.84374331	    -21.02120612	     36.95211094	    101.97461821	     63.91245760	      0.00000000	      0.00000000	     18.04605797	    -27.17025136	     24.18512702	    113.73927314	     80.06364796	      0.00000000	      0.00000000
      0.47777778	      4.84496892	     10.05169593	     88.17377778	      0.05557042	      1.09842313	      0.55674497	     59.05446182	      1.91803549	     11.90599332	     90.96211734	      1.58758844	     -6.78398054	      0.00000000	      0.00000000	      5.58009226	     -2.63456711	      3.68141235	     24.11702836	      0.42092155	      8.76760264	      0.00000000	      0.00000000	    -22.83729273	      4.17567351	    -14.40373419	     16.94787997	    -20.95434153	     36.92197290	    101.96137491	     63.90152461	      0.00000000	      0.00000000	     18.20637621	    -27.21270506	     24.15491307	    113.74356579	     80.05906397	      0.00000000	      0.00000000
      0.48055556	      4.89383524	     10.23376720	     88.36901038	      0.05620618	      1.09880668	      0.55684339	     59.69023557	      2.13279534	     11.93609533	     91.03510579	      1.58886233	     -6.77956877	      0.00000000	      0.00000000	      5.40208013	     -2.73961666	      3.76328034	     24.10423205	      0.42069821	      8.76894650	      0.00000000	      0.00000000	    -23.07221663	      4.19438723	    -14.40936735	     17.10091874	    -20.88569912	     36.88460959	    101.95360962	     63.89625442	      0.00000000	      0.00000000	     18.44191659	    -27.24315090	     24.09680241	    113.74854586	     80.05108935	      0.00000000	      0.00000000
